<svg width="172" height="36" viewBox="0 0 172 36" fill="none" xmlns="http://www.w3.org/2000/svg">
<path fill-rule="evenodd" clip-rule="evenodd" d="M19.4649 12.1428H1.72217V9.21594H19.4649V12.1428Z" fill="#4AA274"/>
<path fill-rule="evenodd" clip-rule="evenodd" d="M13.6102 24.8801C11.6795 24.107 9.50753 24.107 7.57682 24.8801L2.83946 26.777L1.72217 24.2001L6.45953 22.3032C9.1053 21.2438 12.0818 21.2438 14.7276 22.3032L19.4649 24.2001L18.3476 26.777L13.6102 24.8801Z" fill="#4AA274"/>
<path d="M10.5936 18.5819C11.5735 18.5819 12.3679 17.7957 12.3679 16.8258C12.3679 15.8559 11.5735 15.0697 10.5936 15.0697C9.6137 15.0697 8.81934 15.8559 8.81934 16.8258C8.81934 17.7957 9.6137 18.5819 10.5936 18.5819Z" fill="#FFB800"/>
<path d="M36.3082 9.24414C37.6519 9.24414 38.8253 9.53448 39.8284 10.1152C40.8504 10.6958 41.6074 11.4264 42.0994 12.3068V9.49702H44.7112V25.2317C44.7112 26.6365 44.4084 27.8822 43.8027 28.9686C43.1971 30.0738 42.3265 30.9355 41.191 31.5536C40.0744 32.1717 38.7685 32.4808 37.2734 32.4808C35.2295 32.4808 33.5262 32.0032 32.1635 31.0478C30.8009 30.0925 29.9965 28.7907 29.7505 27.1423H32.3055C32.5893 28.0789 33.176 28.8281 34.0655 29.3901C34.955 29.9708 36.0243 30.2611 37.2734 30.2611C38.6928 30.2611 39.8473 29.8209 40.7368 28.9405C41.6452 28.0601 42.0994 26.8238 42.0994 25.2317V22.0004C41.5885 22.8996 40.8314 23.6488 39.8284 24.2482C38.8253 24.8477 37.6519 25.1474 36.3082 25.1474C34.9267 25.1474 33.6681 24.8102 32.5326 24.1358C31.416 23.4615 30.5359 22.5156 29.8924 21.298C29.249 20.0804 28.9272 18.6943 28.9272 17.1396C28.9272 15.5661 29.249 14.1893 29.8924 13.0092C30.5359 11.8104 31.416 10.8832 32.5326 10.2276C33.6681 9.57195 34.9267 9.24414 36.3082 9.24414ZM42.0994 17.1677C42.0994 16.0063 41.8629 14.9948 41.3897 14.1331C40.9166 13.2715 40.2731 12.6158 39.4593 12.1663C38.6644 11.698 37.7844 11.4638 36.8192 11.4638C35.854 11.4638 34.974 11.6886 34.1791 12.1382C33.3842 12.5878 32.7502 13.2434 32.2771 14.105C31.8039 14.9667 31.5674 15.9782 31.5674 17.1396C31.5674 18.3197 31.8039 19.3499 32.2771 20.2303C32.7502 21.0919 33.3842 21.7569 34.1791 22.2252C34.974 22.6748 35.854 22.8996 36.8192 22.8996C37.7844 22.8996 38.6644 22.6748 39.4593 22.2252C40.2731 21.7569 40.9166 21.0919 41.3897 20.2303C41.8629 19.3499 42.0994 18.329 42.0994 17.1677Z" fill="#4AA274"/>
<path d="M51.6605 11.9976C52.1147 11.1172 52.7582 10.4335 53.5909 9.94648C54.4425 9.45945 55.474 9.21594 56.6852 9.21594V11.8571H56.0039C53.1083 11.8571 51.6605 13.4118 51.6605 16.5213V24.8944H49.0771V9.49692H51.6605V11.9976Z" fill="#4AA274"/>
<path d="M73.2699 16.6057C73.2699 17.0927 73.2415 17.6078 73.1848 18.1511H60.751C60.8456 19.6683 61.3657 20.8578 62.3123 21.7195C63.2775 22.5624 64.4411 22.9838 65.8038 22.9838C66.9204 22.9838 67.8477 22.731 68.5858 22.2252C69.3429 21.7007 69.8731 21.0077 70.1759 20.146H72.9576C72.5413 21.6258 71.7086 22.834 70.4595 23.7706C69.2104 24.6884 67.6588 25.1474 65.8038 25.1474C64.3276 25.1474 63.0031 24.8196 61.8297 24.1639C60.6753 23.5083 59.7668 22.5811 59.1044 21.3823C58.442 20.1647 58.1108 18.7598 58.1108 17.1677C58.1108 15.5755 58.4323 14.1799 59.0757 12.9811C59.7195 11.7823 60.6185 10.8644 61.7729 10.2276C62.9463 9.57195 64.2897 9.24414 65.8038 9.24414C67.28 9.24414 68.5858 9.56258 69.7214 10.1995C70.8569 10.8363 71.7275 11.7167 72.3331 12.8406C72.9576 13.9458 73.2699 15.2008 73.2699 16.6057ZM70.6014 16.0718C70.6014 15.0978 70.3838 14.2642 69.9485 13.5712C69.5132 12.8594 68.917 12.3255 68.16 11.9696C67.4219 11.595 66.5987 11.4077 65.6902 11.4077C64.3844 11.4077 63.2681 11.8198 62.3407 12.6439C61.4323 13.4681 60.9118 14.6108 60.7793 16.0718H70.6014Z" fill="#4AA274"/>
<path d="M90.8737 16.6057C90.8737 17.0927 90.8454 17.6078 90.7886 18.1511H78.3545C78.4491 19.6683 78.9696 20.8578 79.9158 21.7195C80.881 22.5624 82.045 22.9838 83.4076 22.9838C84.5242 22.9838 85.4516 22.731 86.1897 22.2252C86.9467 21.7007 87.4766 21.0077 87.7794 20.146H90.5615C90.1451 21.6258 89.3124 22.834 88.0633 23.7706C86.8142 24.6884 85.2623 25.1474 83.4076 25.1474C81.9314 25.1474 80.6066 24.8196 79.4332 24.1639C78.2788 23.5083 77.3703 22.5811 76.708 21.3823C76.0456 20.1647 75.7144 18.7598 75.7144 17.1677C75.7144 15.5755 76.0361 14.1799 76.6796 12.9811C77.323 11.7823 78.222 10.8644 79.3765 10.2276C80.5498 9.57195 81.8936 9.24414 83.4076 9.24414C84.8838 9.24414 86.1897 9.56258 87.3252 10.1995C88.4607 10.8363 89.3313 11.7167 89.9369 12.8406C90.5615 13.9458 90.8737 15.2008 90.8737 16.6057ZM88.2052 16.0718C88.2052 15.0978 87.9876 14.2642 87.5523 13.5712C87.117 12.8594 86.5209 12.3255 85.7638 11.9696C85.0257 11.595 84.2025 11.4077 83.2941 11.4077C81.9882 11.4077 80.8716 11.8198 79.9442 12.6439C79.0358 13.4681 78.5153 14.6108 78.3829 16.0718H88.2052Z" fill="#4AA274"/>
<path d="M100.977 9.21594C102.869 9.21594 104.402 9.78726 105.576 10.9299C106.749 12.0538 107.336 13.6835 107.336 15.8189V24.8944H104.781V16.1841C104.781 14.6481 104.393 13.4774 103.617 12.6719C102.841 11.8477 101.781 11.4356 100.437 11.4356C99.0746 11.4356 97.9864 11.8571 97.1726 12.7C96.3778 13.543 95.9803 14.7699 95.9803 16.3808V24.8944H93.397V9.49692H95.9803V11.6885C96.4913 10.9018 97.1821 10.293 98.0527 9.86219C98.9422 9.43136 99.9168 9.21594 100.977 9.21594Z" fill="#4AA274"/>
<path d="M114.139 4.10229V24.8945H111.556V4.10229H114.139Z" fill="#FFB800"/>
<path d="M119.876 6.9963C119.384 6.9963 118.968 6.82772 118.627 6.49055C118.287 6.15338 118.116 5.74128 118.116 5.25426C118.116 4.76723 118.287 4.35513 118.627 4.01796C118.968 3.68079 119.384 3.51221 119.876 3.51221C120.349 3.51221 120.747 3.68079 121.069 4.01796C121.409 4.35513 121.58 4.76723 121.58 5.25426C121.58 5.74128 121.409 6.15338 121.069 6.49055C120.747 6.82772 120.349 6.9963 119.876 6.9963ZM121.125 9.49699V24.8945H118.542V9.49699H121.125Z" fill="#FFB800"/>
<path d="M131.944 9.24414C133.288 9.24414 134.461 9.53448 135.464 10.1152C136.486 10.6958 137.243 11.4264 137.735 12.3068V9.49702H140.347V25.2317C140.347 26.6365 140.044 27.8822 139.438 28.9686C138.833 30.0738 137.962 30.9355 136.827 31.5536C135.71 32.1717 134.404 32.4808 132.909 32.4808C130.865 32.4808 129.162 32.0032 127.799 31.0478C126.437 30.0925 125.632 28.7907 125.386 27.1423H127.941C128.225 28.0789 128.812 28.8281 129.701 29.3901C130.591 29.9708 131.66 30.2611 132.909 30.2611C134.329 30.2611 135.483 29.8209 136.373 28.9405C137.281 28.0601 137.735 26.8238 137.735 25.2317V22.0004C137.224 22.8996 136.467 23.6488 135.464 24.2482C134.461 24.8477 133.288 25.1474 131.944 25.1474C130.562 25.1474 129.304 24.8102 128.168 24.1358C127.052 23.4615 126.172 22.5156 125.528 21.298C124.885 20.0804 124.563 18.6943 124.563 17.1396C124.563 15.5661 124.885 14.1893 125.528 13.0092C126.172 11.8104 127.052 10.8832 128.168 10.2276C129.304 9.57195 130.562 9.24414 131.944 9.24414ZM137.735 17.1677C137.735 16.0063 137.499 14.9948 137.025 14.1331C136.552 13.2715 135.909 12.6158 135.095 12.1663C134.3 11.698 133.42 11.4638 132.455 11.4638C131.49 11.4638 130.61 11.6886 129.815 12.1382C129.02 12.5878 128.386 13.2434 127.913 14.105C127.44 14.9667 127.203 15.9782 127.203 17.1396C127.203 18.3197 127.44 19.3499 127.913 20.2303C128.386 21.0919 129.02 21.7569 129.815 22.2252C130.61 22.6748 131.49 22.8996 132.455 22.8996C133.42 22.8996 134.3 22.6748 135.095 22.2252C135.909 21.7569 136.552 21.0919 137.025 20.2303C137.499 19.3499 137.735 18.329 137.735 17.1677Z" fill="#FFB800"/>
<path d="M152.434 9.21605C153.607 9.21605 154.667 9.46893 155.613 9.97469C156.559 10.4617 157.297 11.2016 157.827 12.1944C158.376 13.1872 158.651 14.3954 158.651 15.819V24.8945H156.096V16.1842C156.096 14.6482 155.708 13.4775 154.932 12.6721C154.156 11.8479 153.096 11.4358 151.752 11.4358C150.39 11.4358 149.301 11.8572 148.488 12.7001C147.693 13.5431 147.295 14.77 147.295 16.3809V24.8945H144.712V4.10229H147.295V11.6886C147.806 10.9019 148.506 10.2931 149.396 9.86229C150.304 9.43147 151.317 9.21605 152.434 9.21605Z" fill="#FFB800"/>
<path d="M166.022 11.6043V20.6798C166.022 21.4291 166.183 21.9629 166.505 22.2814C166.827 22.5811 167.385 22.7309 168.18 22.7309H170.082V24.8944H167.754C166.316 24.8944 165.237 24.5666 164.518 23.911C163.798 23.2554 163.439 22.1783 163.439 20.6798V11.6043H161.423V9.49697H163.439V5.61951H166.022V9.49697H170.082V11.6043H166.022Z" fill="#FFB800"/>
</svg>
