<svg width="24" height="24" viewBox="0 0 24 24" fill="none" xmlns="http://www.w3.org/2000/svg">
<path fill-rule="evenodd" clip-rule="evenodd" d="M22.563 5.63065H2.28564V2.28571H22.563V5.63065Z" fill="#4AA274"/>
<path fill-rule="evenodd" clip-rule="evenodd" d="M15.872 20.1876C13.6655 19.3041 11.1832 19.3041 8.97668 20.1876L3.56255 22.3554L2.28564 19.4104L7.69978 17.2426C10.7235 16.0318 14.1252 16.0318 17.1489 17.2426L22.563 19.4104L21.2861 22.3554L15.872 20.1876Z" fill="#4AA274"/>
<path d="M12.4247 12.9896C13.5446 12.9896 14.4525 12.091 14.4525 10.9826C14.4525 9.8742 13.5446 8.97565 12.4247 8.97565C11.3048 8.97565 10.397 9.8742 10.397 10.9826C10.397 12.091 11.3048 12.9896 12.4247 12.9896Z" fill="#FFB800"/>
</svg>
