<svg width="12" height="6" viewBox="0 0 12 6" fill="none" xmlns="http://www.w3.org/2000/svg">
<path d="M6.00041 5.91771C5.8057 5.91809 5.61701 5.85028 5.46708 5.72604L0.467078 1.55938C0.112695 1.26482 0.0641929 0.738758 0.358745 0.384375C0.653297 0.0299928 1.17936 -0.0185097 1.53374 0.276042L6.00041 4.00938L10.4671 0.409375C10.6392 0.269567 10.86 0.204151 11.0806 0.227613C11.3011 0.251074 11.5032 0.361476 11.6421 0.534375C11.7964 0.707592 11.8715 0.937273 11.8493 1.16817C11.8272 1.39908 11.7098 1.6103 11.5254 1.75104L6.52541 5.77604C6.37118 5.88064 6.18633 5.93052 6.00041 5.91771Z" fill="#212B36"/>
</svg>
