<svg width="7" height="12" viewBox="0 0 7 12" fill="none" xmlns="http://www.w3.org/2000/svg">
<path d="M1.5001 11.25C1.32486 11.2503 1.15504 11.1893 1.0201 11.0775C0.866721 10.9503 0.770241 10.7674 0.751949 10.569C0.733657 10.3706 0.795057 10.1731 0.922602 10.02L4.2826 5.99999L1.0426 1.97249C0.916774 1.81754 0.8579 1.61883 0.879015 1.42035C0.90013 1.22187 0.999492 1.03999 1.1551 0.914989C1.31198 0.77696 1.51932 0.710633 1.72718 0.731988C1.93504 0.753344 2.12457 0.860445 2.2501 1.02749L5.8726 5.52749C6.10009 5.80424 6.10009 6.20324 5.8726 6.47999L2.1226 10.98C1.97 11.1641 1.73878 11.2644 1.5001 11.25Z" fill="#212B36"/>
</svg>
