<svg width="14" height="14" viewBox="0 0 14 14" fill="none" xmlns="http://www.w3.org/2000/svg">
<path fill-rule="evenodd" clip-rule="evenodd" d="M7.00016 0.333496C3.31826 0.333496 0.333496 3.31826 0.333496 7.00016C0.333496 10.6821 3.31826 13.6668 7.00016 13.6668C10.6821 13.6668 13.6668 10.6821 13.6668 7.00016C13.6668 5.23205 12.9645 3.53636 11.7142 2.28612C10.464 1.03588 8.76827 0.333496 7.00016 0.333496ZM7.66683 9.66683C7.66683 10.035 7.36835 10.3335 7.00016 10.3335C6.63197 10.3335 6.3335 10.035 6.3335 9.66683V6.3335C6.3335 5.96531 6.63197 5.66683 7.00016 5.66683C7.36835 5.66683 7.66683 5.96531 7.66683 6.3335V9.66683ZM6.3335 4.3335C6.3335 4.70169 6.63197 5.00016 7.00016 5.00016C7.36835 5.00016 7.66683 4.70169 7.66683 4.3335C7.66683 3.96531 7.36835 3.66683 7.00016 3.66683C6.63197 3.66683 6.3335 3.96531 6.3335 4.3335Z" fill="#637381"/>
</svg>
